<svg width="292" height="260" viewBox="0 0 292 260" fill="none" xmlns="http://www.w3.org/2000/svg">
<path d="M135.918 135.241C129.485 135.67 123.23 132.915 120.907 131.484H119.835L118.763 137.387V143.827L121.443 150.804C121.443 150.804 123.588 153.488 124.124 153.488C124.66 153.488 116.619 170.124 116.619 170.124V200.178L115.01 214.668L117.155 220.571C115.189 220.035 114.26 219.927 126.268 223.791C138.276 227.655 143.78 215.741 145.031 209.301C145.567 202.146 146.639 188.264 146.639 189.981C146.639 191.698 154.144 194.99 157.897 196.421C166.832 199.283 185.559 205.008 188.99 205.008C192.421 205.008 196.495 203.577 198.103 202.861C203.464 198.031 200.248 184.614 199.711 183.004C199.283 181.716 196.674 179.605 195.423 178.711C193.692 177.718 192.402 177.135 188.99 176.028L174.516 172.271L173.443 174.954C173.389 174.462 173.054 174.107 171.835 173.344L169.691 169.588L167.547 172.271L165.402 173.344V171.734L166.474 168.514L165.402 166.904C165.045 166.725 164.223 166.26 163.794 165.831C163.365 165.402 162.901 164.579 162.722 164.221L162.186 159.391C163.488 156.912 166.196 150.718 168.083 146.511C169.982 142.274 170.227 133.81 169.691 129.874L165.402 123.971C147.712 136.314 143.959 134.704 135.918 135.241Z" fill="#263238"/>
<path d="M123.277 154.475C123.178 154.474 123.082 154.45 122.994 154.406C122.907 154.361 122.831 154.297 122.773 154.217C121.089 151.856 118.012 144.965 117.691 141.788C117.369 138.611 119.181 131.055 119.256 130.711C119.297 130.554 119.397 130.42 119.535 130.336C119.674 130.252 119.839 130.225 119.997 130.261C120.155 130.298 120.292 130.394 120.38 130.53C120.468 130.666 120.499 130.831 120.467 130.99C120.467 131.076 118.634 138.697 118.924 141.724C119.213 144.751 122.215 151.384 123.78 153.53C123.828 153.597 123.863 153.672 123.882 153.751C123.901 153.831 123.904 153.913 123.891 153.994C123.878 154.075 123.849 154.152 123.806 154.222C123.763 154.291 123.707 154.352 123.641 154.4C123.53 154.46 123.403 154.486 123.277 154.475Z" fill="#263238"/>
<path d="M132.101 224.639L128.016 224.349C132.444 223.158 135.188 216.02 136.904 211.115C137.226 210.192 137.536 209.311 137.847 208.506C139.37 204.524 139.509 192.127 139.423 187.362C138.791 185.118 137.086 179.655 135.885 177.884C135.635 177.526 135.461 177.12 135.372 176.692C135.284 176.264 135.283 175.822 135.371 175.394C135.746 173.591 137.59 172.421 139.209 171.401C139.756 171.077 140.283 170.718 140.785 170.328C141.15 168.031 143.819 167.312 145.803 166.786C146.425 166.614 147.014 166.453 147.475 166.281C149.395 164.521 157.8 148.442 159.645 139.802C161.21 132.514 158.572 129.938 158.572 129.917L160.995 127.083C161.446 127.459 165.359 131.054 163.322 140.586C161.735 147.992 152.547 168.278 149.052 169.684C148.315 169.96 147.563 170.193 146.8 170.381C145.999 170.559 145.219 170.822 144.473 171.165C144.237 172.668 142.779 173.591 141.257 174.567C140.504 174.984 139.793 175.473 139.134 176.027C140.892 178.882 142.854 185.773 143.08 186.578L143.144 187.04C143.144 188.8 143.423 204.363 141.321 209.837C141.032 210.61 140.732 211.447 140.421 212.328C138.501 217.887 138.437 222.943 132.101 224.639Z" fill="white"/>
<path d="M201.202 187.416C198.275 185.977 190.652 184.475 186.084 183.509C184.133 183.101 182.45 182.736 181.184 182.435C179.085 181.936 176.876 182.202 174.955 183.187C174.385 183.436 173.797 183.645 173.197 183.809C170.881 184.389 169.305 182.113 168.168 180.45C168.04 180.267 167.9 180.052 167.75 179.859C166.303 180.707 164.309 181.866 162.389 181.319C161.944 181.185 161.532 180.96 161.178 180.659C160.824 180.358 160.535 179.987 160.331 179.569C159.842 178.515 159.482 177.405 159.259 176.264C158.905 174.772 158.658 173.827 157.918 173.237C155.388 171.219 155.399 170.264 155.345 170.017L157.243 166.915C158.102 168.183 159.11 169.344 160.245 170.371C161.704 171.696 162.64 173.501 162.883 175.459C163.044 176.249 163.281 177.021 163.59 177.766C164.381 177.5 165.137 177.14 165.842 176.693C166.367 176.346 166.937 176.072 167.536 175.877C169.219 175.459 170.248 176.951 171.235 178.378C171.639 179.005 172.098 179.594 172.607 180.138C172.875 180.052 173.197 179.924 173.551 179.773C176.216 178.476 179.252 178.156 182.128 178.872C183.318 179.172 184.969 179.516 186.878 179.945C191.423 180.811 195.855 182.194 200.087 184.067L201.202 187.416Z" fill="white"/>
<path d="M222.323 207.616C222.202 207.616 222.084 207.582 221.98 207.519C215.054 203.001 199.465 201.723 199.293 201.713C199.206 201.715 199.119 201.699 199.039 201.666C198.958 201.632 198.886 201.583 198.825 201.519C198.765 201.456 198.719 201.381 198.69 201.299C198.661 201.216 198.649 201.129 198.656 201.042C198.663 200.955 198.688 200.87 198.73 200.793C198.771 200.717 198.828 200.65 198.898 200.596C198.967 200.543 199.046 200.505 199.131 200.485C199.216 200.465 199.304 200.462 199.39 200.478C200.044 200.478 215.472 201.788 222.656 206.478C222.725 206.522 222.785 206.579 222.832 206.646C222.878 206.713 222.911 206.789 222.928 206.869C222.945 206.949 222.946 207.032 222.931 207.112C222.915 207.192 222.884 207.269 222.838 207.337C222.782 207.422 222.705 207.492 222.616 207.541C222.526 207.59 222.426 207.615 222.323 207.616Z" fill="#263238"/>
<path d="M216.748 195.401C216.264 195.39 215.784 195.311 215.322 195.165C213.103 194.532 201.384 188.231 200.912 187.963C200.768 187.886 200.66 187.754 200.611 187.597C200.563 187.441 200.579 187.271 200.655 187.126C200.734 186.98 200.867 186.872 201.026 186.824C201.184 186.776 201.355 186.792 201.502 186.868C205.673 189.122 213.993 193.491 215.654 193.974C216.099 194.155 216.587 194.203 217.059 194.113C217.097 193.969 217.186 193.843 217.31 193.759C217.433 193.675 217.582 193.639 217.73 193.655C217.878 193.672 218.015 193.742 218.117 193.852C218.218 193.961 218.276 194.104 218.281 194.253C218.275 194.418 218.232 194.579 218.154 194.724C218.076 194.869 217.965 194.994 217.831 195.09C217.514 195.31 217.133 195.419 216.748 195.401Z" fill="#263238"/>
<path d="M223.299 187.104C223.299 187.104 217.402 192.857 217.402 193.48C217.402 194.102 221.594 197.827 221.905 199.072C222.216 200.317 225.015 198.761 225.787 199.072C226.559 199.383 226.409 201.562 224.232 202.024C222.056 202.485 222.216 208.088 222.988 208.861C223.76 209.634 230.493 213.058 234.171 216.943C237.848 220.829 239.918 224.714 241.462 225.337C243.006 225.959 244.571 226.41 245.032 223.319C245.493 220.228 245.965 213.53 241.933 208.711C237.902 203.891 236.187 203.419 234.943 203.419C233.699 203.419 231.726 203.58 232.466 201.873C233.206 200.167 234.943 198.653 234.321 197.204C233.699 195.755 228.842 186.643 223.299 187.104Z" fill="#263238"/>
<path d="M244.828 227.612C244.375 227.635 243.925 227.533 243.526 227.317C243.127 227.101 242.795 226.78 242.566 226.388C242.529 226.316 242.508 226.237 242.502 226.156C242.496 226.075 242.506 225.994 242.532 225.917C242.558 225.84 242.599 225.769 242.653 225.708C242.707 225.647 242.772 225.597 242.845 225.562C242.99 225.49 243.158 225.478 243.312 225.528C243.466 225.578 243.595 225.687 243.67 225.83C243.724 225.916 244.142 226.614 245.45 226.292C247.241 225.841 248.667 225.326 249.031 223.201C249.534 218.562 248.586 213.882 246.319 209.805C244.941 207.725 243.289 205.84 241.408 204.203C239.725 202.625 238.406 201.38 238.309 200.049C238.309 199.566 238.309 199.083 238.256 198.578C238.346 196.652 237.979 194.732 237.184 192.975C235.779 190.174 232.445 186.535 229.282 185.194C226.376 184.002 225.057 184.528 223.921 187.34C223.857 187.493 223.735 187.613 223.582 187.676C223.43 187.738 223.258 187.737 223.106 187.673C222.954 187.609 222.834 187.487 222.771 187.334C222.709 187.181 222.71 187.01 222.774 186.857C224.221 183.401 226.258 182.564 229.796 184.035C233.335 185.505 236.851 189.401 238.374 192.417C239.27 194.328 239.697 196.426 239.617 198.535C239.617 199.022 239.639 199.494 239.682 199.952C239.735 200.789 240.968 201.949 242.384 203.279C244.351 204.994 246.075 206.969 247.509 209.151C249.943 213.484 250.948 218.476 250.382 223.415C249.846 226.26 247.862 226.99 245.879 227.483C245.537 227.577 245.183 227.62 244.828 227.612Z" fill="#263238"/>
<path d="M134.309 130.239C131.254 130.239 125.732 129.842 122.848 127.158C121.694 126.092 120.685 124.88 119.846 123.552C119.29 122.634 118.616 121.793 117.841 121.051C117.151 120.455 116.653 119.668 116.411 118.789C116.169 117.91 116.192 116.979 116.479 116.114C116.541 115.962 116.66 115.841 116.811 115.777C116.961 115.712 117.131 115.71 117.283 115.77C117.36 115.799 117.431 115.842 117.49 115.898C117.55 115.955 117.598 116.022 117.631 116.098C117.664 116.173 117.681 116.254 117.682 116.336C117.684 116.418 117.668 116.499 117.637 116.575C117.445 117.209 117.445 117.885 117.635 118.519C117.826 119.153 118.2 119.717 118.709 120.139C119.537 120.952 120.258 121.868 120.854 122.865C121.636 124.111 122.581 125.248 123.663 126.246C126.643 129.015 133.312 129.047 135.221 128.983C135.386 128.983 135.544 129.049 135.66 129.165C135.777 129.282 135.843 129.44 135.843 129.605C135.843 129.771 135.777 129.929 135.66 130.046C135.544 130.162 135.386 130.228 135.221 130.228L134.309 130.239Z" fill="#263238"/>
<path d="M138.877 135.777C133.712 135.835 128.574 135.029 123.673 133.394C117.101 130.818 117.24 128.028 117.509 127.266C117.59 126.985 117.687 126.709 117.798 126.439C118.055 125.795 118.152 125.559 117.798 124.98C116.919 123.649 117.637 120.761 117.723 120.439C117.763 120.28 117.865 120.144 118.006 120.059C118.146 119.975 118.314 119.949 118.473 119.989C118.633 120.031 118.77 120.135 118.854 120.278C118.938 120.42 118.963 120.59 118.924 120.751C118.634 121.824 118.42 123.67 118.838 124.293C119.113 124.666 119.275 125.11 119.303 125.573C119.332 126.036 119.226 126.497 118.999 126.901C118.897 127.126 118.815 127.359 118.752 127.598C118.463 128.672 119.706 130.486 124.113 132.235C129.474 134.382 143.155 136.164 151.25 132.235C164.384 125.903 165.316 123.563 165.284 122.994C165.252 122.425 165.198 121.921 165.134 121.277C164.808 119.559 164.874 117.791 165.327 116.103C166.056 114.214 166.785 112.336 166.035 109.985C165.537 107.834 165.282 105.635 165.273 103.427C165.198 101.967 165.134 100.583 164.984 99.5307C164.801 97.6352 164.205 95.8031 163.236 94.164C163.173 94.113 163.12 94.0499 163.082 93.9784C163.043 93.9068 163.019 93.8283 163.011 93.7473C163.003 93.6664 163.011 93.5846 163.035 93.5069C163.059 93.4291 163.098 93.357 163.151 93.2946C163.257 93.1683 163.408 93.0886 163.573 93.0726C163.737 93.0565 163.901 93.1054 164.03 93.2087C164.93 93.9708 165.852 96.9547 166.174 99.4019C166.346 100.475 166.41 101.924 166.485 103.416C166.487 105.518 166.725 107.614 167.193 109.663C168.072 112.432 167.193 114.611 166.485 116.532C166.093 118.059 166.042 119.653 166.335 121.201C166.399 121.824 166.464 122.425 166.496 122.983C166.56 124.378 165.113 126.976 151.753 133.405C148.172 135.123 143.487 135.777 138.877 135.777Z" fill="#263238"/>
<path d="M194.748 136.851C191.963 136.778 189.192 136.419 186.481 135.777C183.983 135.198 183.49 131.924 183.125 129.53C183.062 128.699 182.863 127.883 182.536 127.115C181.056 126.128 180.82 125.259 180.82 122.983C180.696 121.811 180.183 120.715 179.362 119.87C178.839 119.199 178.379 118.48 177.99 117.724C177.121 115.985 174.108 107.484 174.837 105.037C175.352 103.33 173.272 99.4662 169.841 98.1353C166.11 96.6756 158.658 92.0602 158.348 91.867C158.278 91.8242 158.217 91.7679 158.169 91.7015C158.121 91.6351 158.086 91.5598 158.067 91.48C158.048 91.4003 158.045 91.3175 158.059 91.2366C158.072 91.1556 158.101 91.078 158.144 91.0083C158.232 90.8693 158.371 90.7702 158.531 90.7321C158.691 90.6941 158.86 90.72 159.002 90.8044C159.077 90.8044 166.668 95.5593 170.291 96.9761C174.205 98.5002 176.724 102.955 176.028 105.391C175.502 107.173 178.011 114.987 179.094 117.198C179.475 117.884 179.916 118.534 180.413 119.141C181.399 120.2 181.999 121.561 182.117 123.005C182.117 125.151 182.321 125.463 183.286 126.107C183.972 126.568 184.155 127.738 184.358 129.327C184.691 131.473 185.098 134.157 186.76 134.543C192.507 135.863 199.004 136.207 199.69 133.867C200.269 131.903 200.023 128.79 199.797 126.042C199.59 124.336 199.547 122.615 199.669 120.901C199.937 119.001 196.452 105.788 194.308 97.8992C193.289 94.0566 192.485 91.0298 192.228 89.8277C191.477 86.2856 169.798 70.572 164.244 68.3609C159.463 66.4181 152.322 63.8636 145.46 64.0675C145.369 64.0757 145.278 64.0614 145.193 64.0258C145.109 63.9903 145.035 63.9345 144.978 63.8636C143.953 62.6612 142.811 61.5646 141.568 60.5899L141.193 60.9978C139.713 62.5971 136.25 66.3645 131.286 65.7205C128.557 65.4282 125.884 64.7413 123.352 63.6811C123.37 64.2519 123.171 64.8081 122.795 65.2375L122.698 65.3126C122.591 65.3877 120.05 66.9763 113.049 66.3859C106.294 65.7741 102.584 65.4414 96.1083 58.9584C94.2964 57.1445 92.1949 54.9334 89.9541 52.5828C84.7863 47.0337 78.8894 40.8405 76.6378 39.7135C74.0646 38.4255 69.4329 37.9103 67.7603 37.76C67.578 39.7242 66.6238 45.4558 61.7776 47.4201C61.7776 48.1929 62.1207 50.4683 65.0906 54.3646L66.731 56.5112C71.738 63.1445 83.4782 78.6757 87.1986 80.2749C88.3995 80.7902 90.4151 81.5093 92.7096 82.3358C98.9817 84.5898 106.798 87.3912 109.124 89.7311C111.097 91.6953 112.791 99.1979 114.292 105.831C115.171 109.695 116.083 113.699 116.619 114.343C117.719 115.388 118.997 116.227 120.393 116.822C121.327 117.175 122.172 117.728 122.87 118.443C122.959 118.581 122.99 118.749 122.955 118.91C122.921 119.071 122.825 119.212 122.687 119.302C122.55 119.389 122.384 119.42 122.224 119.388C122.064 119.356 121.923 119.264 121.83 119.13C121.221 118.643 120.55 118.238 119.835 117.928C118.284 117.264 116.87 116.318 115.665 115.137C114.968 114.311 114.271 111.316 113.081 106.11C111.794 100.25 109.961 92.3071 108.245 90.579C106.101 88.4323 98.124 85.5665 92.2914 83.4735C89.9648 82.6363 88.0028 81.9172 86.7055 81.3268C82.6848 79.5987 71.2341 64.4539 65.7446 57.1767L64.1042 55.03C60.0085 49.6633 60.5125 47.0122 60.5875 46.7331C60.609 46.6313 60.657 46.5369 60.7267 46.4596C60.7964 46.3823 60.8852 46.3249 60.9842 46.293C66.345 44.4898 66.5595 37.0945 66.5702 37.0194C66.5729 36.9367 66.5921 36.8554 66.6266 36.7802C66.6611 36.7049 66.7103 36.6374 66.7712 36.5814C66.8321 36.5255 66.9035 36.4822 66.9813 36.4542C67.0591 36.4262 67.1417 36.414 67.2242 36.4183C67.4923 36.4183 73.8073 36.8584 77.1954 38.565C79.6292 39.8315 85.3545 45.8315 90.8869 51.6383C93.117 53.9782 95.1756 56.1892 97.0197 57.9924C103.174 64.1534 106.519 64.4325 113.188 65.0657C119.063 65.6024 121.529 64.4861 121.948 64.2607C122.075 63.9669 122.13 63.6466 122.108 63.3269C122.108 62.9727 122.108 62.157 122.87 62.157C123.137 62.1907 123.395 62.2745 123.631 62.4039C126.111 63.4738 128.739 64.1614 131.425 64.4432C135.714 64.9906 138.931 61.5667 140.271 60.1498C140.509 59.8486 140.791 59.5845 141.107 59.3663C141.472 59.1946 142.179 58.8618 145.696 62.8225C152.686 62.6937 159.881 65.2589 164.705 67.2232C170.291 69.5094 192.507 85.2552 193.429 89.6345C193.675 90.8044 194.501 93.8205 195.498 97.6416C198.618 109.319 201.17 119.108 200.859 121.137C200.754 122.762 200.8 124.393 200.998 126.01C201.223 128.865 201.481 132.096 200.837 134.275C200.28 136.25 197.653 136.851 194.748 136.851Z" fill="#263238"/>
<path d="M131.189 70.9154C129.276 70.925 127.374 70.6167 125.561 70.0031C119.363 67.8564 119.428 65.7634 119.503 65.3663C119.528 65.2026 119.618 65.0558 119.752 64.9582C119.885 64.8605 120.052 64.8201 120.216 64.8457C120.379 64.8713 120.526 64.9609 120.624 65.0948C120.721 65.2286 120.761 65.3958 120.736 65.5595C120.736 65.6668 120.982 67.1051 125.968 68.7795C129.345 69.8629 132.973 69.8874 136.365 68.8496C139.756 67.8118 142.75 65.7613 144.945 62.9727C144.996 62.9085 145.058 62.855 145.129 62.8153C145.2 62.7756 145.278 62.7505 145.359 62.7415C145.44 62.7325 145.522 62.7398 145.6 62.7629C145.678 62.786 145.751 62.8245 145.814 62.8761C145.942 62.9811 146.023 63.132 146.041 63.2965C146.059 63.461 146.012 63.626 145.91 63.7563C144.151 65.9799 141.915 67.7783 139.366 69.0177C136.818 70.2571 134.023 70.9057 131.189 70.9154Z" fill="#263238"/>
<path d="M76.9164 21.7565L0.12793 8.28613L71.116 10.7763L76.9164 21.7565Z" fill="#E8E8E8"/>
<path d="M64.2756 10.5294V7.04102L0.12793 8.28609L64.2756 10.5294Z" fill="#D9D9D9"/>
<path d="M68.4356 6.96597L55.1836 0L0.12793 8.28617L68.4356 6.96597Z" fill="#E8E8E8"/>
<path d="M61.1876 47.5488C61.0977 47.5522 61.0083 47.5345 60.9264 47.4973C60.8445 47.46 60.7725 47.4042 60.7159 47.3342C60.6194 47.2268 51.1951 36.268 48.386 34.057C47.807 33.6062 47.2066 33.1124 46.5848 32.608C44.0829 30.3583 41.2876 28.4591 38.2755 26.9622C34.4157 25.3307 29.4837 17.388 29.28 17.0445C29.2378 16.9741 29.2098 16.8959 29.1977 16.8147C29.1856 16.7334 29.1897 16.6505 29.2096 16.5707C29.2295 16.491 29.2649 16.416 29.3138 16.3499C29.3627 16.2839 29.424 16.2282 29.4944 16.1859C29.5648 16.1436 29.6429 16.1156 29.7241 16.1035C29.8053 16.0914 29.8881 16.0954 29.9677 16.1154C30.0474 16.1353 30.1223 16.1707 30.1883 16.2197C30.2542 16.2686 30.3099 16.3301 30.3522 16.4005C30.3522 16.4757 35.2841 24.3325 38.7901 25.8244C41.8565 27.1232 44.7942 29.5275 47.3674 31.6419L49.1472 33.0802C52.0635 35.3664 61.2627 46.0676 61.6594 46.5292C61.7128 46.5902 61.7535 46.6613 61.7792 46.7382C61.8049 46.8151 61.815 46.8964 61.809 46.9773C61.803 47.0582 61.781 47.1371 61.7443 47.2095C61.7076 47.2818 61.6568 47.3461 61.5951 47.3986C61.4827 47.4978 61.3374 47.5514 61.1876 47.5488Z" fill="#263238"/>
<path d="M42.3715 15.6063L1.7793 8.28613L43.851 20.9515L42.3715 15.6063Z" fill="#9E9E9E"/>
<path d="M50.0371 22.8084L65.1225 27.3487L66.1947 19.889L48.2681 16.6689C48.2681 16.6689 48.6648 18.9981 48.8899 19.889C49.203 20.888 49.5863 21.8636 50.0371 22.8084Z" fill="#9E9E9E"/>
<path d="M125.732 64.4969H125.56C125.481 64.4747 125.407 64.437 125.343 64.386C125.279 64.3351 125.225 64.2718 125.185 64.2C125.145 64.1281 125.12 64.0491 125.111 63.9674C125.102 63.8858 125.109 63.8031 125.131 63.7241C125.131 63.7241 126.3 59.5918 125.131 56.7474C125.09 56.6703 125.066 56.5854 125.06 56.4981C125.053 56.4109 125.066 56.3234 125.096 56.2412C125.125 56.159 125.172 56.0841 125.233 56.0212C125.294 55.9584 125.367 55.909 125.448 55.8764C125.529 55.8438 125.616 55.8287 125.703 55.832C125.791 55.8353 125.876 55.857 125.955 55.8956C126.033 55.9342 126.102 55.9889 126.158 56.0562C126.214 56.1234 126.255 56.2017 126.279 56.2859C127.597 59.5059 126.354 63.8851 126.279 64.0676C126.241 64.1855 126.168 64.2894 126.071 64.3659C125.973 64.4424 125.855 64.488 125.732 64.4969Z" fill="#263238"/>
<path d="M139.584 62.3288C139.486 62.3289 139.389 62.3055 139.301 62.2607C139.214 62.216 139.138 62.151 139.08 62.0712C137.386 59.7314 134.556 55.6312 134.663 54.4827C134.682 54.3204 134.763 54.1717 134.889 54.0677C135.015 53.9637 135.176 53.9124 135.339 53.9246C135.502 53.9435 135.651 54.0241 135.757 54.1498C135.862 54.2755 135.916 54.4368 135.907 54.6008C135.907 55.2555 138.051 58.6151 140.088 61.3414C140.136 61.4076 140.171 61.4827 140.189 61.5622C140.208 61.6417 140.211 61.7242 140.198 61.805C140.186 61.8857 140.157 61.9631 140.114 62.0327C140.071 62.1024 140.015 62.1629 139.949 62.2108C139.842 62.2863 139.715 62.3275 139.584 62.3288Z" fill="#263238"/>
<path d="M208.964 159.015C208.816 159.012 208.669 158.994 208.524 158.961C206.809 158.586 200.097 151.706 198.875 150.031C197.93 148.835 196.723 147.873 195.347 147.219C194.664 148.168 194.236 149.277 194.104 150.439C193.975 152.028 193.729 153.584 192.806 154.217C192.586 154.363 192.334 154.455 192.072 154.487C191.81 154.519 191.544 154.489 191.295 154.4C189.386 153.82 189.676 152.049 190.083 149.602L190.223 148.733C190.648 146.817 191.371 144.981 192.367 143.291C192.538 142.969 192.721 142.615 192.817 142.4C192.324 141.573 190.308 138.246 188.925 135.96C188.841 135.818 188.815 135.649 188.853 135.489C188.891 135.329 188.99 135.19 189.129 135.101C189.199 135.058 189.276 135.029 189.357 135.016C189.438 135.003 189.52 135.006 189.6 135.025C189.68 135.044 189.755 135.078 189.821 135.126C189.888 135.174 189.944 135.235 189.987 135.305C190.641 136.378 193.879 141.67 194.029 141.981C194.179 142.293 194.029 142.722 193.46 143.827C192.533 145.401 191.857 147.111 191.456 148.894L191.305 149.763C190.887 152.317 190.866 152.929 191.649 153.165C191.949 153.262 192.056 153.165 192.11 153.165C192.667 152.79 192.817 150.933 192.871 150.321C192.985 148.712 193.656 147.194 194.769 146.028C194.88 145.951 195.007 145.9 195.14 145.877C195.274 145.855 195.41 145.862 195.54 145.899C197.224 146.635 198.697 147.778 199.829 149.226C201.48 151.373 207.742 157.47 208.782 157.695C208.9 157.695 209.103 157.749 209.157 157.641C209.211 157.534 209.157 156.675 208.235 155.806C207.002 154.733 202.938 149.366 203.292 148.131C203.329 147.997 203.403 147.876 203.506 147.781C203.608 147.686 203.734 147.622 203.871 147.595C204.45 147.477 205.029 147.895 208.342 150.815C210.047 152.328 212.631 154.604 213.274 154.733C213.522 154.782 213.773 154.817 214.025 154.84C213.89 154.601 213.739 154.372 213.574 154.153C213.06 153.434 212.041 152.317 211.055 151.233C209.849 150.017 208.755 148.695 207.785 147.284C207.709 147.138 207.693 146.969 207.741 146.812C207.789 146.655 207.898 146.524 208.042 146.446C208.187 146.369 208.357 146.351 208.516 146.398C208.674 146.444 208.808 146.55 208.889 146.693C209.812 148.009 210.841 149.248 211.966 150.396C213.038 151.555 214.025 152.65 214.582 153.423C215.14 154.196 215.654 155.001 215.215 155.57C214.775 156.139 213.907 156.085 213.07 155.902C212.234 155.72 210.379 154.196 207.559 151.706C206.809 151.04 205.908 150.235 205.179 149.634C206.289 151.511 207.605 153.257 209.103 154.84C210.293 155.913 210.776 157.244 210.304 158.156C210.193 158.418 210.005 158.639 209.766 158.792C209.527 158.945 209.248 159.023 208.964 159.015Z" fill="#263238"/>
<path d="M215.247 153.82C214.369 153.772 213.512 153.531 212.738 153.112C212.617 153.021 212.533 152.889 212.502 152.74C212.471 152.592 212.496 152.437 212.571 152.305C212.646 152.173 212.766 152.073 212.91 152.024C213.053 151.975 213.209 151.98 213.349 152.038C214 152.414 214.744 152.596 215.494 152.564L215.547 152.5C215.547 152.5 215.547 152.135 214.357 151.051C212.429 149.026 210.638 146.874 208.996 144.611C208.908 144.487 208.861 144.339 208.861 144.187C208.861 144.035 208.908 143.887 208.996 143.763C209.736 142.861 216.062 145.824 216.126 145.91C216.169 145.918 216.212 145.918 216.255 145.91C216.255 145.91 216.255 145.405 215.462 144.74C214.475 143.935 208.953 141.906 200.676 139.309L200.526 139.255C198.768 138.707 198.028 136.207 197.953 135.928C197.929 135.777 197.961 135.622 198.044 135.493C198.126 135.365 198.253 135.271 198.4 135.23C198.547 135.189 198.704 135.203 198.841 135.27C198.978 135.338 199.086 135.453 199.143 135.595C199.315 136.174 199.947 137.741 200.891 138.074H201.041C207.174 140.006 214.797 142.55 216.244 143.731C217.692 144.911 217.659 145.963 217.316 146.564C217.135 146.831 216.859 147.019 216.545 147.091C216.231 147.162 215.901 147.112 215.622 146.951C214.979 146.629 212.599 145.684 211.012 145.137C212.333 146.891 213.765 148.558 215.301 150.128C216.426 151.201 216.898 151.92 216.877 152.564C216.862 152.761 216.805 152.953 216.709 153.125C216.612 153.298 216.479 153.447 216.319 153.562C216.006 153.778 215.624 153.87 215.247 153.82Z" fill="#263238"/>
<path d="M116.876 10.5402C116.876 10.5402 109.199 12.5152 108.17 16.7227C107.141 20.9301 108.17 25.3094 111.483 24.8693C114.796 24.4292 119.138 21.5527 122.033 21.7566C124.928 21.9605 124.317 23.0554 123.277 24.8908C122.237 26.7262 124.102 29.8389 129.281 28.3898C134.46 26.9408 134.642 24.2468 138.384 25.2772C142.126 26.3076 138.716 34.8084 139.585 36.0106C140.453 37.2127 140.657 38.9086 142.608 36.0106C144.559 33.1125 147.497 29.1734 150.596 30.2145C153.694 31.2557 147.701 37.2556 144.602 38.5007L141.493 39.7458C141.493 39.7458 140.249 48.4398 138.384 49.6849C138.384 49.6849 150.81 48.0319 155.538 43.6742C160.267 39.3164 156.16 39.3808 156.986 37.0517C157.811 34.7225 162.572 34.6045 162.572 31.7816C162.572 28.9587 161.95 29.3773 157.608 27.3058C153.265 25.2342 154.498 24.2038 155.12 23.1627C155.742 22.1215 156.364 20.2647 152.847 19.2235C149.331 18.1824 141.053 15.703 142.576 13.4275C144.098 11.152 144.892 6.59034 139.552 6.98748C134.213 7.38461 129.109 10.8622 126.075 10.4866C123.041 10.1109 120.243 9.30589 116.876 10.5402Z" fill="#263238"/>
<path d="M127.008 57.3915H126.858L125.464 57.0803C121.851 56.286 114.335 54.6438 110.325 51.7995C105.425 48.3218 106.315 39.6707 107.194 36.9123C108.074 34.1538 110.057 24.8265 110.078 24.6869C110.095 24.605 110.128 24.5273 110.176 24.4589C110.224 24.3906 110.286 24.333 110.357 24.2898C110.426 24.2437 110.503 24.2132 110.585 24.2002C110.666 24.1872 110.75 24.1922 110.829 24.2147C110.954 24.2262 111.079 24.2262 111.204 24.2147C111.268 24.182 111.337 24.1602 111.408 24.1503C113.036 23.8353 114.62 23.3235 116.125 22.6261C118.27 21.746 120.35 20.9088 122.076 21.0376C123.03 21.1127 124.22 21.2844 124.606 22.1109C124.992 22.9374 124.51 23.9034 123.824 25.1163C123.669 25.4146 123.606 25.7521 123.642 26.0862C123.678 26.4204 123.812 26.7364 124.027 26.9946C124.885 28.0679 126.794 28.3792 129.109 27.7245C130.68 27.2859 132.167 26.5856 133.505 25.6529C134.985 24.6977 136.143 23.9463 138.555 24.5796C141.536 25.4168 140.85 29.678 140.356 32.8014C140.14 33.7221 140.053 34.6687 140.099 35.6135C140.26 35.8389 140.399 36.0858 140.539 36.3219C140.647 36.5543 140.792 36.768 140.968 36.9552C141.387 36.557 141.747 36.1017 142.04 35.6028C143.787 33.059 147.036 28.3255 150.746 29.5706C151.109 29.6644 151.431 29.8747 151.664 30.1694C151.896 30.464 152.025 30.8268 152.032 31.2021C152.107 33.66 147.497 37.9319 144.774 39.016L141.965 40.143C141.589 41.6457 139.981 47.9354 138.877 49.9318L138.662 50.3397C137.976 51.6921 136.518 54.5257 133.763 55.9855C133.617 56.0615 133.448 56.0771 133.292 56.0288C133.135 55.9806 133.004 55.8724 132.926 55.7279C132.85 55.5809 132.834 55.4099 132.882 55.2513C132.93 55.0928 133.038 54.9595 133.184 54.8799C135.607 53.6027 136.925 51.0159 137.558 49.7708L137.794 49.3308C138.93 47.2485 140.817 39.6707 140.839 39.5419C140.861 39.4464 140.905 39.3575 140.969 39.2827C141.032 39.208 141.113 39.1497 141.203 39.1126L144.313 37.8675C146.704 36.9123 150.842 32.9194 150.746 31.2343C150.746 31.0733 150.746 30.8801 150.306 30.7406C147.829 29.9141 145.342 32.8872 143.026 36.3112C142.072 37.6958 141.407 38.211 140.764 38.1895C140.121 38.1681 139.692 37.5133 139.359 36.9337C139.241 36.7298 139.123 36.5151 138.984 36.3112C138.555 35.7101 138.705 34.626 138.984 32.5974C139.413 29.9463 139.992 26.3184 138.083 25.7817C136.175 25.2451 135.446 25.7817 134.041 26.6619C132.651 27.6837 131.1 28.4672 129.452 28.9803C125.389 30.118 123.62 28.5509 123.019 27.8211C122.655 27.3755 122.431 26.8316 122.376 26.2583C122.32 25.6851 122.436 25.1083 122.709 24.6011C123.084 23.9249 123.598 23.0125 123.47 22.7764C123.47 22.7764 123.277 22.4866 121.958 22.39C120.639 22.2934 118.506 23.0984 116.597 23.8927C115.024 24.6012 113.377 25.1339 111.687 25.4812C111.522 25.542 111.347 25.5711 111.172 25.5671C110.711 27.7137 109.124 34.948 108.374 37.2879C107.623 39.6278 106.765 47.7422 111.043 50.7905C114.839 53.4846 122.194 55.0839 125.721 55.8674L127.147 56.1787C127.227 56.1976 127.302 56.232 127.368 56.2801C127.435 56.3281 127.491 56.3887 127.534 56.4585C127.576 56.5283 127.605 56.6059 127.618 56.6868C127.631 56.7677 127.627 56.8504 127.608 56.93C127.575 57.0633 127.497 57.1813 127.388 57.265C127.279 57.3488 127.145 57.3933 127.008 57.3915Z" fill="#263238"/>
<path d="M108.76 34.014C108.658 34.0158 108.558 33.9898 108.47 33.9389C107.054 33.1148 105.817 32.0134 104.836 30.7004C103.854 29.3873 103.146 27.8896 102.756 26.2967C102.434 25.3686 102.434 24.359 102.756 23.4309C102.921 23.1899 103.15 22.9999 103.417 22.8823C103.684 22.7647 103.978 22.7242 104.267 22.7654C105.34 22.862 106.733 23.8387 107.72 26.1464C108.277 27.5933 108.997 28.9723 109.864 30.2573C109.965 30.3882 110.01 30.554 109.989 30.718C109.968 30.8821 109.882 31.031 109.751 31.1321C109.621 31.2331 109.455 31.278 109.291 31.2569C109.127 31.2358 108.979 31.1503 108.878 31.0194C107.924 29.6583 107.136 28.1882 106.53 26.6401C105.693 24.6545 104.61 24.0427 104.096 23.9997C103.849 23.9997 103.763 24.0856 103.742 24.1178C103.388 24.9013 104.643 30.5578 109.017 32.844C109.138 32.9097 109.234 33.0138 109.29 33.14C109.345 33.2662 109.358 33.4073 109.325 33.5412C109.291 33.6751 109.215 33.7941 109.107 33.8797C108.999 33.9653 108.865 34.0125 108.728 34.014H108.76Z" fill="#263238"/>
<path d="M134.074 32.2967H133.752C133.485 32.2499 133.238 32.1218 133.047 31.9297C132.855 31.7376 132.727 31.4909 132.68 31.2233C132.508 30.4935 130.964 29.4523 129.914 28.9478C129.839 28.9123 129.773 28.8624 129.718 28.8009C129.663 28.7394 129.621 28.6677 129.594 28.5898C129.567 28.5119 129.556 28.4295 129.561 28.3472C129.566 28.265 129.588 28.1845 129.624 28.1106C129.659 28.0367 129.708 27.9703 129.768 27.9155C129.828 27.8607 129.899 27.8186 129.976 27.7916C130.053 27.7646 130.135 27.7533 130.216 27.7583C130.297 27.7633 130.377 27.7846 130.45 27.8208C130.964 28.0677 133.527 29.3879 133.892 30.9443C133.892 31.0409 133.892 31.0409 133.977 31.0516C134.113 31.056 134.247 31.0269 134.369 30.967C134.49 30.9071 134.595 30.8182 134.674 30.7081C134.743 30.6068 134.78 30.4871 134.78 30.3647C134.78 30.2422 134.743 30.1225 134.674 30.0212C133.859 28.5078 133.302 27.6598 132.616 27.4774C132.532 27.462 132.452 27.4294 132.381 27.3817C132.31 27.334 132.249 27.2722 132.203 27.2001C132.157 27.128 132.127 27.0471 132.113 26.9626C132.1 26.8781 132.104 26.7918 132.125 26.7089C132.147 26.6261 132.185 26.5486 132.238 26.4812C132.29 26.4138 132.356 26.3581 132.432 26.3174C132.507 26.2767 132.59 26.2519 132.675 26.2447C132.76 26.2374 132.846 26.2478 132.927 26.2752C134.17 26.5972 134.921 27.8423 135.768 29.4416C135.947 29.7538 136.03 30.1124 136.005 30.4718C135.98 30.8311 135.849 31.175 135.628 31.4595C135.448 31.7057 135.214 31.9086 134.945 32.0534C134.676 32.1982 134.379 32.2813 134.074 32.2967Z" fill="#263238"/>
<path d="M111.794 27.9713C111.726 27.9817 111.658 27.9817 111.59 27.9713C111.269 27.9008 110.972 27.748 110.727 27.5278C110.483 27.3077 110.3 27.0278 110.196 26.7155C110.147 26.4023 110.167 26.082 110.256 25.7776C110.345 25.4732 110.5 25.1924 110.711 24.9553C110.829 24.8412 110.986 24.7774 111.15 24.7774C111.314 24.7774 111.472 24.8412 111.59 24.9553C111.703 25.0715 111.767 25.2275 111.767 25.39C111.767 25.5524 111.703 25.7084 111.59 25.8247C111.483 25.9535 111.301 26.2647 111.354 26.4365C111.408 26.6082 111.515 26.6511 111.719 26.7477C112.861 26.2257 114.089 25.92 115.343 25.8461C115.526 25.8391 115.703 25.7756 115.849 25.6641C115.994 25.5527 116.102 25.3988 116.157 25.2236C116.319 24.8549 116.349 24.442 116.243 24.0537C116.102 24.075 115.958 24.0472 115.835 23.9749C115.712 23.9026 115.618 23.7902 115.568 23.6565C115.511 23.5083 115.513 23.3436 115.575 23.1974C115.638 23.0512 115.754 22.9348 115.9 22.873C116.095 22.7908 116.311 22.7683 116.519 22.8084C116.727 22.8486 116.918 22.9495 117.069 23.0984C117.334 23.4567 117.499 23.8795 117.546 24.323C117.593 24.7665 117.521 25.2146 117.337 25.6207C117.2 26.0338 116.942 26.3957 116.595 26.6583C116.249 26.9209 115.83 27.0719 115.396 27.0912C114.231 27.1608 113.09 27.4599 112.04 27.9713C111.959 27.9898 111.875 27.9898 111.794 27.9713Z" fill="#263238"/>
<path d="M113.348 31.6741C112.722 31.4149 112.077 31.2032 111.419 31.0408C111.133 30.9643 110.843 30.9034 110.55 30.8583C110.218 30.7939 109.864 30.7617 109.403 30.6329C109.647 30.2504 110.005 29.955 110.427 29.7892C110.849 29.6233 111.312 29.5956 111.751 29.7098C112.201 29.8054 112.605 30.0524 112.896 30.4098C113.186 30.7671 113.346 31.2133 113.348 31.6741Z" fill="#263238"/>
<path d="M124.66 33.3916C125.047 32.8685 125.598 32.4906 126.226 32.3183C126.857 32.1357 127.524 32.1136 128.166 32.2538C128.8 32.4001 129.389 32.6985 129.882 33.1233C130.377 33.5318 130.748 34.0709 130.954 34.6796C130.343 34.4649 129.882 34.2181 129.346 34.0356C128.873 33.8464 128.385 33.6991 127.887 33.5955C127.395 33.4738 126.893 33.4019 126.386 33.3809C125.807 33.3809 125.261 33.3809 124.66 33.3916Z" fill="#263238"/>
<path d="M116.972 40.787H116.854C115.755 40.5658 114.678 40.2424 113.638 39.8209C113.446 39.7382 113.275 39.6133 113.137 39.4553C113 39.2974 112.9 39.1105 112.845 38.9086C112.745 38.1509 112.937 37.3837 113.381 36.7619L116.447 30.719L116.554 30.5688C116.757 30.3301 117.013 30.1425 117.302 30.0213C117.591 29.9001 117.904 29.8486 118.216 29.8711C118.548 29.9395 118.862 30.0771 119.137 30.275C119.412 30.4728 119.643 30.7266 119.814 31.0196C119.881 31.1443 119.907 31.287 119.889 31.4274C119.889 31.4274 119.192 35.9999 119.117 37.8675C119.148 38.5008 118.974 39.1273 118.62 39.6534C118.266 40.1795 117.752 40.5771 117.155 40.787H116.972ZM117.476 31.3416L114.421 37.363C114.157 37.7083 114.014 38.1306 114.013 38.5651C114.013 38.5651 114.013 38.6403 114.131 38.6832C115.031 39.052 115.965 39.3324 116.919 39.5204C117.22 39.3517 117.467 39.1005 117.63 38.7963C117.793 38.4921 117.866 38.1475 117.841 37.8031C117.916 36.0857 118.441 32.4364 118.591 31.4596C118.452 31.2739 118.257 31.1383 118.034 31.0732C117.927 31.0784 117.822 31.1059 117.726 31.1539C117.63 31.202 117.545 31.2695 117.476 31.3523V31.3416Z" fill="#263238"/>
<path d="M109.403 33.3594C109.645 33.2805 109.901 33.2531 110.153 33.279C110.406 33.3049 110.651 33.3834 110.872 33.5097C111.554 33.8851 112.098 34.4685 112.426 35.175C112.754 35.8815 112.848 36.6744 112.695 37.4381C112.352 38.3182 111.237 37.32 109.628 36.6868C109.103 36.4828 109.049 36.6868 108.556 36.515L109.403 33.3594Z" fill="#263238"/>
<path d="M122.108 39.3593C121.926 40.4326 123.909 40.175 126.236 40.5507C128.562 40.9263 130.331 41.8387 130.524 40.7224C130.717 39.6061 129.216 36.8584 126.9 36.4827C124.585 36.107 122.29 38.243 122.108 39.3593Z" fill="#263238"/>
<path d="M116.308 45.4775C117.712 45.0481 118.902 44.8335 120.039 44.4793C120.609 44.3158 121.168 44.115 121.711 43.8782C122.28 43.6528 122.784 43.3308 123.491 42.998C123.349 43.737 122.973 44.4105 122.419 44.9193C121.867 45.4213 121.206 45.7887 120.489 45.9927C119.793 46.1942 119.065 46.2563 118.345 46.1751C117.617 46.1198 116.916 45.8796 116.308 45.4775Z" fill="#263238"/>
<path d="M143.562 97.4053C143.562 103.352 141.074 108.139 132.165 108.139C125.882 108.139 122.097 103.33 122.097 97.4053C122.097 91.4804 124.627 86.6719 132.165 86.6719C139.702 86.6719 143.562 91.4697 143.562 97.4053Z" fill="#E8E8E8"/>
<path d="M131.093 98.7474H130.889C130.546 98.7474 129.892 98.7474 129.699 98.1571C129.506 97.5667 129.945 97.2876 130.246 97.0837C130.398 96.9616 130.538 96.825 130.664 96.6758L130.567 96.6114C129.763 96.0533 124.381 96.225 119.642 96.7188C119.561 96.7292 119.478 96.7233 119.4 96.7012C119.321 96.6792 119.247 96.6415 119.183 96.5904C119.119 96.5394 119.066 96.476 119.027 96.404C118.988 96.332 118.964 96.2529 118.956 96.1714C118.941 96.0067 118.991 95.8426 119.095 95.7142C119.199 95.5858 119.349 95.5034 119.513 95.4844C121.197 95.3127 129.688 94.4862 131.307 95.5918C131.494 95.7032 131.65 95.86 131.76 96.0475C131.871 96.2351 131.933 96.4475 131.94 96.6651C131.944 96.8347 131.916 97.0036 131.855 97.162C131.794 97.3204 131.703 97.4652 131.586 97.5882C132.101 97.5882 132.808 97.4701 133.623 97.3735C137.215 96.9442 143.272 96.225 148.526 97.6311C148.681 97.6777 148.812 97.7828 148.89 97.9242C148.969 98.0655 148.99 98.2321 148.948 98.3885C148.906 98.5448 148.805 98.6787 148.666 98.7618C148.528 98.8448 148.362 98.8705 148.204 98.8333C143.133 97.4916 137.279 98.1893 133.773 98.6079C132.551 98.6293 131.661 98.7474 131.093 98.7474Z" fill="#263238"/>
<path d="M44.4191 26.1036C44.2978 26.1045 44.179 26.0692 44.0778 26.0023C43.9766 25.9354 43.8976 25.8399 43.8508 25.7279C43.3956 24.2075 43.1857 22.6241 43.229 21.0374L41.7601 15.8639C41.7341 15.7626 41.7336 15.6564 41.7587 15.5548C41.7837 15.4532 41.8335 15.3594 41.9036 15.2818C41.9737 15.2042 42.0619 15.1452 42.1603 15.11C42.2588 15.0749 42.3644 15.0647 42.4677 15.0804L47.657 15.9927C47.9143 15.9927 49.158 16.4006 49.3832 19.2128C49.4863 20.4045 49.8923 21.5499 50.5626 22.5401C50.6065 22.6092 50.6359 22.6866 50.6489 22.7674C50.6619 22.8483 50.6582 22.931 50.6381 23.0104C50.6181 23.0898 50.582 23.1643 50.5321 23.2292C50.4822 23.2942 50.4196 23.3482 50.3481 23.3881C50.2787 23.4305 50.2015 23.4587 50.121 23.4709C50.0405 23.4831 49.9584 23.4791 49.8795 23.4591C49.8006 23.4391 49.7265 23.4035 49.6615 23.3544C49.5966 23.3054 49.542 23.2438 49.5011 23.1734C48.7301 22.0253 48.265 20.6988 48.1502 19.3201C48.0001 17.4632 47.3997 17.1734 47.389 17.1734L43.229 16.4436L44.4512 20.7369C44.4564 20.7976 44.4564 20.8587 44.4512 20.9194C44.4033 22.3684 44.5769 23.8162 44.9659 25.2127C45.0306 25.3637 45.0331 25.5341 44.9729 25.6869C44.9126 25.8397 44.7945 25.9625 44.6442 26.0285C44.5743 26.0668 44.498 26.0923 44.4191 26.1036Z" fill="#263238"/>
<path d="M67.1916 37.7065C67.0781 37.7114 66.9659 37.6814 66.8699 37.6207C65.4546 36.7835 52.9961 29.2916 51.3235 26.2003C51.268 26.1041 51.2388 25.9949 51.2388 25.8837C51.2388 25.7725 51.268 25.6633 51.3235 25.5671C51.6708 24.9389 51.8792 24.2435 51.9347 23.5277C51.9417 23.446 51.9647 23.3664 52.0025 23.2936C52.0403 23.2207 52.092 23.1561 52.1547 23.1032C52.2174 23.0504 52.2899 23.0105 52.3681 22.9857C52.4462 22.9609 52.5285 22.9518 52.6101 22.9589C52.6918 22.9659 52.7713 22.989 52.844 23.0268C52.9168 23.0646 52.9814 23.1163 53.0341 23.1791C53.0869 23.2419 53.1268 23.3145 53.1515 23.3927C53.1763 23.471 53.1854 23.5533 53.1784 23.6351C53.1047 24.4124 52.898 25.1712 52.5672 25.8783C54.3899 28.4221 63.8571 34.3899 67.481 36.6117C67.5525 36.6516 67.6151 36.7056 67.665 36.7706C67.7149 36.8355 67.7509 36.91 67.771 36.9894C67.7911 37.0688 67.7948 37.1515 67.7818 37.2323C67.7688 37.3132 67.7394 37.3906 67.6955 37.4597C67.6367 37.5375 67.5604 37.6003 67.4729 37.6432C67.3854 37.6861 67.289 37.7078 67.1916 37.7065Z" fill="#263238"/>
<path d="M130.257 250.496C130.257 250.496 129.667 241.415 129.184 240.975C128.702 240.535 122.537 241.372 121.272 240.739C120.007 240.106 119.31 243.573 118.495 243.959C117.68 244.346 115.965 242.693 117.133 240.535C118.302 238.378 113.499 234.503 112.298 234.6C111.097 234.696 103.442 237.82 97.5235 238.185C91.6051 238.55 86.8983 237.433 85.2686 238.292C83.6389 239.151 82.1272 240.117 84.4002 242.736C86.6732 245.355 91.9053 250.539 98.853 250.603C105.801 250.668 107.43 249.53 108.288 248.521C109.146 247.512 110.432 245.677 111.365 247.555C112.298 249.433 112.319 251.977 113.938 252.46C115.557 252.943 126.643 255.519 130.257 250.496Z" fill="#263238"/>
<path d="M119.9 259.748C118.276 259.761 116.657 259.584 115.075 259.222C112.843 258.601 110.79 257.461 109.081 255.895C108.674 255.562 108.267 255.229 107.859 254.929C107.087 254.36 105.222 254.564 103.077 254.8C100.236 255.222 97.3495 255.251 94.5 254.886C89.1501 253.829 84.2713 251.105 80.5618 247.104C78.5783 244.646 79.3932 242.489 80.3903 240.481C80.6215 239.861 81.0587 239.339 81.6287 239.003C82.1987 238.667 82.8668 238.537 83.521 238.635C83.664 238.688 83.7826 238.792 83.8543 238.926C83.9261 239.061 83.946 239.217 83.9103 239.365C83.8746 239.514 83.7858 239.644 83.6606 239.731C83.5355 239.818 83.3828 239.856 83.2315 239.837C83.1243 239.837 82.1594 239.666 81.4946 241.04C80.5833 242.875 80.0043 244.431 81.4946 246.32C85.0253 250.081 89.6385 252.647 94.693 253.662C97.4296 254 100.199 253.967 102.927 253.565C105.425 253.286 107.409 253.072 108.567 253.93C108.996 254.242 109.414 254.585 109.843 254.929C111.409 256.382 113.298 257.441 115.354 258.02C118.72 258.857 124.22 258.685 127.587 256.946C130.707 255.336 131.211 253.834 129.731 250.775C129.702 250.64 129.718 250.5 129.776 250.375C129.835 250.25 129.933 250.149 130.056 250.086C130.179 250.024 130.319 250.004 130.454 250.029C130.589 250.055 130.712 250.124 130.803 250.227C132.626 253.877 131.876 256.141 128.166 258.041C125.576 259.231 122.749 259.815 119.9 259.748Z" fill="#263238"/>
<path d="M114.528 238.882C114.414 238.883 114.301 238.851 114.204 238.79C114.108 238.729 114.03 238.642 113.981 238.539C113.944 238.468 113.921 238.391 113.914 238.312C113.907 238.233 113.916 238.153 113.939 238.077C113.963 238.001 114.002 237.931 114.054 237.87C114.105 237.809 114.168 237.759 114.238 237.723C114.324 237.658 117.123 235.748 120.178 223.168C120.189 223.081 120.218 222.997 120.263 222.922C120.308 222.846 120.369 222.782 120.441 222.731C120.513 222.681 120.595 222.647 120.681 222.631C120.767 222.615 120.856 222.617 120.941 222.637C121.027 222.658 121.107 222.696 121.176 222.75C121.246 222.804 121.303 222.872 121.344 222.949C121.386 223.027 121.41 223.112 121.416 223.2C121.422 223.288 121.409 223.376 121.379 223.458C118.163 236.81 115.139 238.657 114.807 238.818C114.72 238.86 114.625 238.883 114.528 238.882Z" fill="#263238"/>
<path d="M127.126 243.219C126.969 243.219 126.818 243.159 126.704 243.051C126.591 242.943 126.523 242.796 126.515 242.639C126.214 237.959 132.39 224.993 132.658 224.446C132.749 224.345 132.871 224.276 133.004 224.251C133.138 224.226 133.276 224.245 133.398 224.306C133.52 224.367 133.618 224.466 133.678 224.588C133.738 224.71 133.756 224.849 133.73 224.982C133.666 225.111 127.437 238.206 127.705 242.553C127.71 242.635 127.7 242.717 127.674 242.795C127.648 242.872 127.607 242.944 127.553 243.006C127.499 243.068 127.434 243.119 127.361 243.155C127.287 243.191 127.207 243.213 127.126 243.219Z" fill="#263238"/>
<path d="M131.972 225.401C127.898 225.401 120.575 223.254 117.069 221.183C113.402 219.036 114.517 211.115 115.493 204.117C115.611 203.258 115.729 202.41 115.836 201.605C116.265 198.278 116.158 191.881 116.04 185.687C115.911 178.378 115.793 171.466 116.469 168.6C117.712 163.233 128.488 143.484 128.949 142.647C128.986 142.574 129.037 142.509 129.1 142.457C129.163 142.405 129.235 142.366 129.314 142.343C129.392 142.32 129.474 142.313 129.555 142.323C129.636 142.332 129.714 142.359 129.785 142.4C129.856 142.438 129.92 142.49 129.971 142.553C130.022 142.616 130.061 142.689 130.084 142.766C130.106 142.844 130.114 142.926 130.105 143.007C130.096 143.088 130.071 143.166 130.031 143.237C129.924 143.441 118.881 163.738 117.669 168.879C117.037 171.594 117.165 178.754 117.283 185.666C117.391 191.902 117.509 198.353 117.069 201.766C116.962 202.582 116.844 203.43 116.715 204.288C115.847 210.567 114.753 218.392 117.691 220.109C121.347 222.256 129.935 224.65 133.098 224.07C134.652 223.791 139.928 222.267 142.876 214.517C145.278 208.217 145.942 187.373 145.942 185.204C145.525 183.942 144.929 182.745 144.173 181.652C142.683 179.14 142.029 177.906 142.629 177.208C143.23 176.51 144.012 177.036 144.334 177.208C145.681 177.885 146.938 178.729 148.076 179.72L148.805 180.289C148.805 180.289 148.805 180.17 148.805 180.106C148.537 179.129 148.237 178.26 147.99 177.562C147.476 176.049 147.186 175.212 147.669 174.653C147.829 174.498 148.028 174.389 148.245 174.338C148.462 174.287 148.689 174.296 148.902 174.364C150.531 174.686 151.421 174.568 152.118 173.913C152.954 173.011 167.675 149.226 168.715 144.074C169.895 138.364 169.787 132.01 168.49 129.927C166.968 127.491 165.123 125.022 165.102 125.001C165.004 124.868 164.963 124.702 164.987 124.54C165.011 124.377 165.099 124.23 165.231 124.131C165.295 124.081 165.369 124.044 165.448 124.023C165.526 124.001 165.609 123.996 165.69 124.007C165.771 124.018 165.849 124.045 165.919 124.087C165.989 124.128 166.051 124.184 166.099 124.249C166.099 124.249 167.997 126.783 169.541 129.262C171.245 131.999 171.02 139.062 169.937 144.289C168.855 149.516 153.823 173.881 152.901 174.804C151.7 176.006 150.145 175.877 148.612 175.598C148.739 176.13 148.9 176.654 149.095 177.165C149.341 177.884 149.652 178.775 149.931 179.795C150.145 180.6 150.306 181.416 149.738 181.78C149.17 182.145 148.462 181.662 147.272 180.707C146.211 179.783 145.041 178.993 143.787 178.356H143.723C144.16 179.3 144.658 180.214 145.213 181.094C146.414 183.133 147.154 184.432 147.154 185.28C147.154 185.494 146.671 208.034 144.012 215.032C140.796 223.394 135.006 225.057 133.291 225.369C132.853 225.42 132.412 225.43 131.972 225.401Z" fill="#263238"/>
<path d="M188.368 205.813C187.821 205.813 187.296 205.813 186.878 205.748C184.304 205.555 175.363 202.614 167.471 200.027C162.732 198.471 158.262 197.001 156.031 196.41C152.158 195.281 148.7 193.043 146.082 189.97C146.02 189.908 145.971 189.834 145.94 189.752C145.908 189.67 145.895 189.583 145.899 189.495C145.904 189.408 145.927 189.322 145.967 189.244C146.007 189.166 146.063 189.097 146.132 189.043C146.2 188.988 146.279 188.948 146.364 188.926C146.449 188.904 146.537 188.9 146.624 188.915C146.71 188.93 146.793 188.962 146.865 189.011C146.938 189.06 147 189.123 147.047 189.197C149.515 192.039 152.738 194.12 156.342 195.197C158.615 195.798 163.108 197.269 167.857 198.836C175.298 201.272 184.551 204.321 186.974 204.503C190.598 204.782 196.742 204.009 198.768 200.747C200.794 197.484 201.116 189.53 200.558 187.577L200.483 187.308C199.819 184.958 198.264 179.43 193.193 177.745C186.845 175.598 175.77 172.582 174.591 172.786C174.344 172.786 174.076 173.451 173.915 173.806C173.669 174.364 173.411 174.933 172.843 174.943C172.275 174.954 171.899 174.289 171.771 174.01C171.546 173.559 171.321 173.033 171.095 172.485C170.752 171.659 170.023 169.942 169.626 169.845C169.115 170.317 168.652 170.838 168.243 171.401C167.257 172.668 166.592 173.548 165.842 173.237C165.091 172.926 165.177 172.163 165.177 171.863C165.199 171.112 165.292 170.364 165.456 169.63C165.799 167.892 165.81 167.291 164.652 166.85C161.907 165.777 161.296 161.258 161.296 159.595C161.296 159.43 161.361 159.271 161.478 159.155C161.595 159.038 161.753 158.972 161.918 158.972C162.083 158.972 162.241 159.038 162.357 159.155C162.474 159.271 162.539 159.43 162.539 159.595C162.539 160.668 162.979 164.897 165.091 165.691C167.203 166.486 166.978 168.299 166.678 169.867C166.564 170.483 166.496 171.107 166.474 171.734C166.742 171.434 167.064 171.015 167.311 170.661C167.766 170.015 168.295 169.424 168.887 168.901C169.036 168.783 169.21 168.701 169.396 168.66C169.581 168.619 169.774 168.621 169.959 168.664C170.945 168.933 171.546 170.371 172.243 172.024C172.436 172.486 172.629 172.947 172.811 173.344C173.1 172.7 173.497 171.831 174.333 171.616C175.92 171.23 189.44 175.212 193.632 176.607C199.315 178.507 201.062 184.689 201.716 187.019L201.791 187.276C202.435 189.509 202.199 197.773 199.862 201.455C197.642 204.922 192.013 205.813 188.368 205.813Z" fill="#263238"/>
<path d="M271.236 246.428C271.018 246.444 270.799 246.444 270.582 246.428C270.418 246.404 270.271 246.315 270.173 246.183C270.074 246.05 270.032 245.883 270.056 245.719C270.081 245.556 270.169 245.408 270.301 245.31C270.434 245.211 270.601 245.169 270.764 245.194C270.85 245.194 278.269 246.095 284.799 233.58C290.428 222.847 290.696 219.627 290.61 218.811C290.406 218.961 290.138 219.208 289.891 219.433C289.255 220.085 288.507 220.615 287.683 221C286.45 221.494 273.144 232.807 270.421 244.721C270.403 244.801 270.37 244.875 270.323 244.942C270.276 245.008 270.217 245.064 270.148 245.107C270.079 245.15 270.002 245.179 269.922 245.192C269.842 245.205 269.76 245.202 269.681 245.183C269.601 245.166 269.525 245.134 269.458 245.087C269.39 245.041 269.333 244.981 269.289 244.912C269.245 244.843 269.215 244.766 269.201 244.685C269.188 244.605 269.191 244.522 269.209 244.442C272.061 231.97 285.764 220.432 287.222 219.841C287.905 219.517 288.523 219.069 289.044 218.521C289.461 218.024 290.006 217.653 290.621 217.448C290.797 217.41 290.981 217.425 291.149 217.492C291.317 217.559 291.462 217.674 291.564 217.823C293.044 219.798 288.648 228.89 285.892 234.127C279.942 245.462 273.316 246.428 271.236 246.428Z" fill="#263238"/>
<path d="M272.179 244.968C272.089 244.967 272 244.946 271.918 244.907C271.837 244.868 271.765 244.812 271.707 244.743C271.654 244.68 271.614 244.607 271.589 244.529C271.564 244.451 271.555 244.369 271.562 244.287C271.569 244.205 271.592 244.125 271.63 244.053C271.668 243.98 271.719 243.915 271.782 243.862C271.868 243.798 280.263 236.66 283.898 228.932C283.972 228.791 284.098 228.683 284.25 228.632C284.401 228.581 284.566 228.59 284.711 228.658C284.856 228.725 284.969 228.846 285.027 228.995C285.086 229.144 285.084 229.31 285.024 229.458C281.271 237.444 272.94 244.485 272.586 244.818C272.473 244.914 272.328 244.968 272.179 244.968Z" fill="#263238"/>
<path d="M270.71 229.973H270.657C270.575 229.968 270.496 229.946 270.423 229.91C270.35 229.873 270.285 229.822 270.233 229.76C270.18 229.698 270.14 229.626 270.115 229.549C270.09 229.471 270.081 229.389 270.088 229.308C270.935 219.1 275.91 208.571 284.874 198.031C285.249 197.58 285.506 197.279 285.613 197.129C285.829 196.782 286.026 196.424 286.203 196.056C286.932 194.682 287.522 193.609 288.347 193.845C289.173 194.081 289.42 194.918 289.194 199.211C288.744 207.798 282.901 224.413 282.654 225.111C282.634 225.196 282.596 225.275 282.543 225.344C282.49 225.413 282.424 225.47 282.347 225.512C282.271 225.553 282.187 225.578 282.101 225.586C282.014 225.593 281.927 225.582 281.845 225.553C281.763 225.524 281.688 225.479 281.624 225.419C281.561 225.36 281.511 225.288 281.477 225.208C281.443 225.128 281.426 225.042 281.428 224.955C281.429 224.868 281.449 224.782 281.486 224.703C281.55 224.531 287.522 207.583 287.918 199.147C288.016 197.915 288.016 196.676 287.918 195.444C287.693 195.798 287.425 196.303 287.254 196.625C287.082 196.947 286.782 197.516 286.589 197.795C286.396 198.074 286.182 198.299 285.763 198.793C276.972 209.14 272.104 219.422 271.279 229.361C271.276 229.516 271.217 229.664 271.112 229.777C271.007 229.89 270.864 229.96 270.71 229.973Z" fill="#263238"/>
<path d="M271.021 236.135H270.85C270.692 236.087 270.56 235.979 270.481 235.835C270.403 235.69 270.385 235.52 270.432 235.362C274.045 222.975 282.472 207.455 282.558 207.262C282.596 207.19 282.648 207.127 282.711 207.075C282.774 207.024 282.847 206.986 282.924 206.963C283.002 206.94 283.084 206.933 283.165 206.941C283.245 206.95 283.323 206.975 283.394 207.015C283.466 207.053 283.529 207.105 283.58 207.168C283.632 207.231 283.67 207.304 283.693 207.382C283.716 207.46 283.723 207.541 283.714 207.622C283.705 207.703 283.68 207.781 283.641 207.852C283.555 208.013 275.203 223.458 271.622 235.759C271.573 235.876 271.489 235.975 271.382 236.043C271.274 236.11 271.148 236.142 271.021 236.135Z" fill="#263238"/>
<path d="M267.258 245.172C267.098 245.173 266.944 245.112 266.829 245C266.4 244.592 256.364 234.75 257.533 222.46C258.552 211.727 261.157 201.627 263.216 200.307C263.353 200.207 263.512 200.141 263.68 200.115C263.848 200.089 264.019 200.103 264.181 200.156C265.414 200.586 265.671 202.4 265.992 204.707C266.168 206.541 266.579 208.345 267.215 210.074C268.941 214.142 273.112 232.775 270.871 242.864C270.826 243.016 270.726 243.145 270.591 243.225C270.455 243.305 270.294 243.331 270.14 243.297C269.986 243.263 269.851 243.171 269.762 243.041C269.672 242.911 269.636 242.752 269.659 242.596C271.804 232.754 267.762 214.539 266.068 210.557C265.394 208.738 264.955 206.841 264.759 204.911C264.556 203.484 264.309 201.691 263.848 201.401C262.69 202.131 259.903 210.675 258.766 222.611C257.694 234.267 267.59 244.002 267.686 244.077C267.782 244.161 267.85 244.272 267.88 244.395C267.91 244.519 267.901 244.649 267.854 244.767C267.806 244.885 267.724 244.985 267.617 245.054C267.51 245.123 267.384 245.157 267.258 245.151V245.172Z" fill="#263238"/>
<path d="M268.115 243.701C267.996 243.7 267.879 243.666 267.779 243.601C267.678 243.536 267.598 243.445 267.547 243.336C262.186 231.465 261.318 214.796 261.318 214.635C261.312 214.554 261.323 214.472 261.349 214.395C261.375 214.318 261.416 214.247 261.47 214.186C261.524 214.125 261.589 214.076 261.663 214.04C261.736 214.005 261.816 213.985 261.897 213.981C262.057 213.978 262.212 214.038 262.329 214.148C262.445 214.259 262.513 214.411 262.519 214.571C262.519 214.732 263.43 231.175 268.652 242.832C268.717 242.982 268.721 243.151 268.663 243.303C268.605 243.456 268.489 243.58 268.341 243.648C268.27 243.681 268.193 243.699 268.115 243.701Z" fill="#263238"/>
<path d="M267.386 212.982C267.228 212.983 267.077 212.923 266.961 212.816C266.846 212.708 266.775 212.56 266.764 212.403C265.81 196.024 272.597 181.888 275.856 175.104C276.454 173.932 276.987 172.728 277.454 171.498C278.172 169.083 279.094 168.675 279.727 168.761C280.66 168.879 281.925 170.017 282.15 178.335C282.44 188.832 279.384 207.186 279.362 207.315C279.349 207.396 279.32 207.474 279.276 207.544C279.233 207.613 279.176 207.674 279.11 207.722C279.043 207.77 278.968 207.804 278.888 207.822C278.808 207.841 278.725 207.844 278.644 207.83C278.563 207.817 278.486 207.788 278.416 207.744C278.346 207.701 278.286 207.644 278.238 207.578C278.19 207.511 278.156 207.435 278.137 207.355C278.119 207.275 278.116 207.192 278.129 207.111C278.129 206.929 281.185 188.682 280.906 178.314C280.703 170.575 279.555 169.942 279.545 169.931C279.096 170.47 278.787 171.112 278.644 171.798C278.163 173.094 277.604 174.359 276.971 175.587C273.755 182.285 267.075 196.217 268.008 212.274C268.012 212.356 268.001 212.438 267.973 212.515C267.946 212.592 267.904 212.663 267.849 212.724C267.794 212.785 267.728 212.834 267.654 212.869C267.58 212.904 267.5 212.925 267.418 212.929L267.386 212.982Z" fill="#263238"/>
<path d="M270.474 227.322C270.32 227.321 270.173 227.263 270.058 227.161C269.944 227.058 269.871 226.917 269.852 226.764C269.649 224.907 270.313 222.074 271.536 216.922C272.147 214.324 272.897 211.094 273.755 207.101C275.547 197.872 276.867 188.557 277.711 179.194C277.73 179.031 277.811 178.881 277.936 178.775C278.062 178.669 278.223 178.616 278.387 178.625C278.468 178.632 278.547 178.655 278.62 178.693C278.692 178.73 278.756 178.782 278.808 178.845C278.86 178.908 278.899 178.981 278.922 179.06C278.946 179.138 278.953 179.22 278.944 179.301C278.098 188.715 276.774 198.079 274.977 207.358C274.109 211.362 273.348 214.593 272.736 217.19C271.557 222.213 270.903 224.972 271.085 226.625C271.103 226.788 271.056 226.952 270.954 227.081C270.851 227.21 270.702 227.293 270.538 227.312L270.474 227.322Z" fill="#263238"/>
<path d="M280.038 249.541C279.904 249.54 279.774 249.497 279.666 249.418C279.558 249.339 279.478 249.228 279.438 249.101C279.391 248.943 279.409 248.773 279.487 248.628C279.566 248.483 279.698 248.375 279.856 248.328L281.121 247.931C281.06 247.897 281.002 247.858 280.949 247.813C280.828 247.7 280.74 247.557 280.694 247.398C280.649 247.239 280.648 247.07 280.692 246.911C280.904 246.27 281.219 245.668 281.625 245.129L281.764 244.925C279.438 245.805 276.21 246.761 273.991 245.795C273.916 245.763 273.847 245.717 273.79 245.659C273.732 245.6 273.687 245.532 273.656 245.456C273.625 245.38 273.609 245.299 273.61 245.217C273.61 245.135 273.627 245.054 273.659 244.979C273.727 244.828 273.851 244.709 274.006 244.649C274.16 244.589 274.332 244.592 274.484 244.657C276.629 245.58 280.338 244.142 281.571 243.669C282.011 243.498 282.815 243.186 283.244 243.734C283.673 244.281 283.244 244.925 282.665 245.816C282.461 246.117 282.236 246.46 282.075 246.761C282.429 246.675 282.911 246.525 283.297 246.406C284.332 246.026 285.415 245.795 286.514 245.72C287.2 245.72 287.404 246.052 287.436 246.331C287.522 246.911 287.586 247.287 280.231 249.551L280.038 249.541Z" fill="#263238"/>
<path d="M265.221 244.807C265.119 244.809 265.019 244.783 264.931 244.732C263.237 243.804 261.697 242.62 260.364 241.222C259.345 240.149 258.595 239.859 258.219 239.956C258.15 239.984 258.09 240.031 258.047 240.092C258.003 240.153 257.977 240.224 257.973 240.299C257.955 240.46 257.893 240.613 257.795 240.742C257.697 240.87 257.566 240.97 257.415 241.029C256.826 241.254 256.247 240.782 255.571 240.235L255.4 240.106C255.4 240.181 255.4 240.256 255.4 240.321C255.507 241.576 255.678 243.465 254.327 244.088C254.253 244.122 254.172 244.141 254.09 244.143C254.008 244.146 253.927 244.132 253.85 244.103C253.774 244.075 253.703 244.031 253.644 243.975C253.584 243.919 253.536 243.851 253.502 243.777C253.468 243.702 253.449 243.621 253.447 243.539C253.444 243.457 253.457 243.376 253.486 243.299C253.515 243.222 253.559 243.152 253.615 243.092C253.671 243.032 253.738 242.984 253.813 242.95C254.36 242.703 254.231 241.276 254.156 240.428C254.081 239.58 254.027 238.893 254.542 238.603C255.056 238.313 255.668 238.743 256.332 239.269L256.847 239.677C256.936 239.459 257.073 239.264 257.248 239.106C257.422 238.948 257.629 238.831 257.855 238.764C258.402 238.603 259.56 238.603 261.211 240.374C262.451 241.652 263.875 242.737 265.435 243.594C265.509 243.632 265.574 243.683 265.628 243.747C265.682 243.81 265.722 243.883 265.747 243.962C265.772 244.041 265.781 244.124 265.773 244.206C265.766 244.289 265.742 244.369 265.703 244.442C265.659 244.538 265.592 244.622 265.508 244.686C265.424 244.75 265.325 244.791 265.221 244.807Z" fill="#263238"/>
<path d="M50.166 244.045C49.0578 244.044 47.951 243.969 46.853 243.819C41.9853 243.165 34.8876 240.599 28.7548 232.399C18.58 218.735 18.1833 207.616 18.0332 202.861C18.0332 202.142 18.0332 201.584 17.9367 201.176C17.6686 199.029 17.9367 196.496 19.1911 195.97C19.5128 195.82 20.1668 195.712 20.8637 196.56C21.3151 197.19 21.5824 197.934 21.6357 198.707C21.8608 200.081 22.1181 201.648 25.1524 203.419C31.4996 207.101 52.6427 220.689 58.4967 240.868C58.5281 240.948 58.5423 241.035 58.5385 241.121C58.5348 241.207 58.513 241.292 58.4747 241.37C58.4364 241.447 58.3824 241.516 58.316 241.571C58.2497 241.627 58.1726 241.668 58.0895 241.692C58.0065 241.716 57.9194 241.722 57.8337 241.711C57.7481 241.699 57.6658 241.67 57.5921 241.624C57.5185 241.579 57.455 241.519 57.4059 241.448C57.3567 241.377 57.3229 241.296 57.3066 241.211C51.5812 221.483 30.7705 208.12 24.5305 204.492C20.9816 202.431 20.6493 200.392 20.4134 198.911C20.3809 198.368 20.2072 197.842 19.9095 197.387C19.8377 197.283 19.7421 197.199 19.6307 197.14C19.427 197.269 18.8695 198.664 19.1697 201.058C19.1697 201.487 19.2447 202.131 19.2769 202.85C19.4377 207.487 19.8237 218.338 29.7627 231.691C35.6167 239.569 42.3499 241.973 46.9709 242.617C49.8916 243.048 52.8697 242.873 55.7198 242.102C55.8762 242.051 56.0463 242.064 56.193 242.139C56.3397 242.213 56.451 242.343 56.5025 242.499C56.5291 242.577 56.5399 242.659 56.5343 242.74C56.5287 242.822 56.5067 242.902 56.4697 242.975C56.4328 243.048 56.3815 243.113 56.3189 243.166C56.2564 243.219 56.1839 243.258 56.1058 243.283C54.1747 243.831 52.1727 244.088 50.166 244.045Z" fill="#263238"/>
<path d="M56.0412 241.855H55.934C55.5373 241.78 46.0594 240.084 35.8416 230.961C29.51 225.094 24.9046 217.603 22.5254 209.301C22.5063 209.221 22.5032 209.139 22.5161 209.058C22.529 208.977 22.5576 208.9 22.6004 208.83C22.6432 208.76 22.6994 208.699 22.7656 208.651C22.8318 208.603 22.9068 208.569 22.9864 208.55C23.0659 208.531 23.1485 208.528 23.2292 208.54C23.31 208.553 23.3874 208.582 23.4571 208.625C23.5268 208.668 23.5874 208.724 23.6354 208.79C23.6834 208.857 23.7179 208.932 23.7369 209.011C26.0441 217.076 30.5164 224.352 36.6672 230.049C46.5955 238.925 56.052 240.632 56.1484 240.643C56.309 240.674 56.4512 240.766 56.5452 240.9C56.6392 241.035 56.6776 241.2 56.6524 241.362C56.6247 241.503 56.5483 241.63 56.4365 241.72C56.3248 241.81 56.1848 241.858 56.0412 241.855Z" fill="#263238"/>
<path d="M62.1097 241.641C61.9476 241.655 61.7865 241.604 61.6619 241.499C61.5372 241.395 61.4592 241.245 61.4449 241.083C61.4307 240.92 61.4815 240.759 61.586 240.634C61.6906 240.509 61.8404 240.431 62.0025 240.417C62.1204 240.417 73.7963 237.959 74.2359 216.288C74.772 192.385 69.9472 180.933 66.9559 177.938C66.334 177.305 65.7872 177.004 65.5192 177.112C64.372 177.562 64.2755 182.833 64.2219 185.977C64.1361 190.185 62.0775 194.231 59.3113 199.845C58.3571 201.755 57.2849 203.924 56.1592 206.285C51.967 215.312 54.2186 230.886 54.24 231.036C54.2626 231.121 54.2671 231.209 54.2531 231.296C54.2392 231.382 54.2071 231.465 54.1591 231.538C54.111 231.612 54.048 231.674 53.9742 231.721C53.9005 231.768 53.8175 231.8 53.7309 231.813C53.6443 231.825 53.5559 231.82 53.4716 231.796C53.3873 231.773 53.3089 231.731 53.2415 231.675C53.1742 231.619 53.1195 231.55 53.0809 231.471C53.0423 231.392 53.0208 231.306 53.0177 231.219C52.9212 230.575 50.6804 215.119 55.0334 205.759C56.1056 203.344 57.2528 201.176 58.2499 199.255C60.9732 193.791 62.946 189.852 63.021 185.924C63.1175 180.342 63.3212 176.629 65.101 175.92C66.3126 175.437 67.492 176.639 67.8779 176.994C72.0272 181.19 75.9942 194.961 75.5225 216.246C75.0078 239 62.7852 241.469 62.2705 241.566L62.1097 241.641Z" fill="#263238"/>
<path d="M47.6248 247.179C43.9687 247.051 43.84 246.407 43.7757 246.106C43.7114 245.805 43.9687 245.29 44.6013 245.033C45.4887 244.636 46.466 244.484 47.4318 244.593C48.153 244.671 48.8825 244.601 49.5761 244.389C51.2165 243.884 51.4739 243.262 51.4739 243.262C51.4927 243.183 51.5268 243.11 51.5743 243.044C51.6217 242.979 51.6815 242.924 51.7502 242.882C51.8189 242.841 51.8953 242.813 51.9748 242.8C52.0543 242.788 52.1355 242.792 52.2136 242.811C52.3738 242.854 52.5111 242.957 52.597 243.099C52.6829 243.241 52.7108 243.411 52.6747 243.573C52.6747 243.777 52.278 244.861 49.9407 245.58C49.0972 245.835 48.2122 245.922 47.3353 245.838C46.8761 245.779 46.4114 245.779 45.9522 245.838C46.4561 245.902 47.0244 245.945 47.6355 245.966C47.8004 245.966 47.9586 246.032 48.0752 246.149C48.1918 246.266 48.2574 246.424 48.2574 246.589C48.2574 246.754 48.1918 246.912 48.0752 247.029C47.9586 247.146 47.8004 247.212 47.6355 247.212L47.6248 247.179Z" fill="#263238"/>
<path d="M66.4199 243.648C66.3357 243.648 66.2523 243.631 66.1749 243.598C66.0975 243.565 66.0276 243.516 65.9696 243.455C65.853 243.338 65.7876 243.18 65.7876 243.015C65.7876 242.85 65.853 242.691 65.9696 242.575C66.3623 242.215 66.7212 241.82 67.0417 241.394L66.9774 241.458C66.5378 241.984 65.9052 242.768 65.0153 242.328C64.6667 242.118 64.3631 241.841 64.122 241.513C63.8809 241.185 63.7072 240.813 63.6108 240.417C63.5724 240.256 63.5994 240.087 63.6859 239.946C63.7723 239.805 63.9112 239.704 64.0718 239.666C64.2325 239.628 64.4018 239.655 64.5426 239.741C64.6833 239.828 64.784 239.967 64.8224 240.127C64.9384 240.568 65.2134 240.951 65.5943 241.201C65.7231 240.998 65.8703 240.808 66.0339 240.632C66.4842 240.106 67.2454 239.215 68.1782 239.838C68.3103 239.929 68.4203 240.048 68.5001 240.188C68.5799 240.327 68.6275 240.483 68.6393 240.643C68.7036 241.641 67.417 242.95 66.8595 243.466C66.7404 243.579 66.5839 243.644 66.4199 243.648Z" fill="#263238"/>
<path d="M62.0348 238.925C61.9534 238.941 61.8696 238.941 61.7882 238.925C61.7125 238.893 61.644 238.845 61.5871 238.786C61.5301 238.726 61.4857 238.656 61.4567 238.578C61.4277 238.501 61.4145 238.419 61.418 238.336C61.4216 238.254 61.4417 238.173 61.4773 238.099C67.4959 223.016 69.7553 206.692 68.0604 190.539C68.0422 190.374 68.0892 190.209 68.1914 190.078C68.2937 189.948 68.443 189.863 68.6072 189.841C68.6884 189.831 68.7708 189.837 68.8496 189.859C68.9284 189.881 69.002 189.919 69.066 189.97C69.13 190.021 69.1831 190.084 69.2222 190.156C69.2612 190.228 69.2854 190.307 69.2934 190.389C72.3812 216.557 62.6996 238.388 62.6031 238.614C62.5461 238.713 62.4629 238.795 62.3626 238.849C62.2624 238.904 62.149 238.931 62.0348 238.925Z" fill="#263238"/>
<path d="M53.2429 228.686C53.1283 228.687 53.0157 228.656 52.9173 228.598C52.8189 228.539 52.7386 228.454 52.6853 228.353C52.6103 228.192 44.494 212.049 47.1101 187.866C48.1619 177.354 50.5916 167.025 54.3365 157.148C55.5802 153.702 56.395 151.427 56.1699 150.01C56.0519 149.28 55.0977 142.84 56.8668 142.046C57.2206 141.885 57.7996 141.863 58.4643 142.679C60.3299 144.976 65.9694 162.364 65.6371 176.714C65.6371 176.796 65.621 176.877 65.5897 176.953C65.5585 177.028 65.5127 177.097 65.4549 177.155C65.3972 177.212 65.3286 177.258 65.2532 177.29C65.1777 177.321 65.0969 177.337 65.0152 177.337C64.9336 177.337 64.8527 177.321 64.7772 177.29C64.7018 177.258 64.6332 177.212 64.5755 177.155C64.5178 177.097 64.472 177.028 64.4407 176.953C64.4094 176.877 64.3934 176.796 64.3934 176.714C64.7257 162.246 58.936 145.255 57.4993 143.441L57.3278 143.259C57.0062 143.945 56.8882 146.564 57.4029 149.795C57.6709 151.523 56.8132 153.917 55.5051 157.545C51.8004 167.331 49.3926 177.561 48.3431 187.974C45.7699 211.77 53.7039 227.601 53.7897 227.762C53.8283 227.835 53.8521 227.914 53.8595 227.996C53.8669 228.077 53.8578 228.16 53.8328 228.238C53.8078 228.316 53.7674 228.388 53.7139 228.45C53.6605 228.513 53.5951 228.563 53.5216 228.6C53.4368 228.65 53.3413 228.679 53.2429 228.686Z" fill="#263238"/>
<path d="M53.4466 214.732C53.2854 214.732 53.1304 214.669 53.0143 214.557C52.8983 214.445 52.8304 214.292 52.8248 214.131C52.8248 213.905 52.6854 208.678 54.7118 197.365C56.7382 186.052 59.0005 159.273 59.0005 158.993C59.0193 158.83 59.0998 158.681 59.2254 158.575C59.3509 158.469 59.5121 158.415 59.6759 158.425C59.7573 158.431 59.8365 158.454 59.9089 158.492C59.9812 158.53 60.0453 158.582 60.0973 158.645C60.1492 158.708 60.1881 158.781 60.2114 158.859C60.2348 158.937 60.2423 159.02 60.2335 159.101C60.2335 159.369 57.9283 186.321 55.9448 197.591C53.9613 208.861 54.0685 214.034 54.0792 214.088C54.0794 214.253 54.0161 214.412 53.9023 214.532C53.7885 214.652 53.6331 214.724 53.4681 214.732H53.4466Z" fill="#263238"/>
<path d="M38.1145 213.905C38.0253 213.904 37.9373 213.885 37.8561 213.848C37.7749 213.811 37.7023 213.757 37.6428 213.691C37.557 213.583 28.6581 203.247 26.4816 189.369C24.3051 175.491 23.383 170.865 21.9785 168.868C21.1636 167.698 21.1315 166.442 21.9034 165.723C22.3216 165.326 24.0477 164.274 27.8539 167.408C32.9038 171.541 44.8049 186.728 47.8069 196.635C47.8432 196.79 47.819 196.953 47.7394 197.09C47.6598 197.227 47.5308 197.329 47.3787 197.374C47.2267 197.42 47.0631 197.405 46.9214 197.333C46.7798 197.262 46.6708 197.139 46.6168 196.99C43.7327 187.469 31.896 172.303 27.0605 168.374C24.6482 166.399 23.1579 166.228 22.7719 166.636C22.536 166.861 22.536 167.451 23.0292 168.149C24.5946 170.371 25.4845 174.868 27.736 189.176C29.8803 202.7 38.5327 212.789 38.6185 212.875C38.6722 212.937 38.7131 213.009 38.7389 213.087C38.7648 213.165 38.775 213.247 38.769 213.328C38.763 213.41 38.741 213.49 38.7041 213.563C38.6672 213.636 38.6163 213.702 38.5541 213.755C38.4319 213.859 38.2748 213.913 38.1145 213.905Z" fill="#263238"/>
<path d="M51.7527 225.262C51.6606 225.262 51.5696 225.242 51.4862 225.203C51.4027 225.164 51.329 225.107 51.2702 225.036C51.2702 224.972 46.0381 218.704 39.1548 208.689C32.2715 198.675 28.5296 180.493 28.3688 179.709C28.3532 179.629 28.3536 179.546 28.37 179.466C28.3864 179.386 28.4184 179.31 28.4642 179.242C28.51 179.174 28.5687 179.116 28.637 179.071C28.7052 179.026 28.7817 178.995 28.862 178.979C29.0223 178.95 29.1875 178.984 29.3233 179.074C29.4591 179.164 29.555 179.303 29.5911 179.462C29.5911 179.655 33.3972 198.095 40.184 207.981C46.9708 217.866 52.1816 224.167 52.2352 224.231C52.3384 224.36 52.3872 224.524 52.3712 224.689C52.3551 224.853 52.2756 225.005 52.1494 225.111C52.0388 225.206 51.8984 225.26 51.7527 225.262Z" fill="#263238"/>
<path d="M33.6546 175.115C33.5214 175.112 33.3927 175.066 33.2868 174.985C33.1809 174.904 33.1033 174.792 33.0649 174.664C33.0649 174.535 29.1194 161.376 27.8971 152.811C27.6076 150.74 27.3289 149.044 27.1037 147.648C26.5033 144.01 26.2781 142.636 26.9965 141.949C27.1888 141.789 27.4176 141.679 27.6625 141.628C27.9075 141.578 28.1612 141.588 28.401 141.659C30.4167 142.056 47.3891 155.022 51.4847 169.995C51.5087 170.075 51.5163 170.159 51.5073 170.242C51.4983 170.324 51.4728 170.405 51.4322 170.477C51.3917 170.55 51.337 170.614 51.2713 170.665C51.2057 170.716 51.1304 170.754 51.05 170.775C50.9696 170.797 50.8857 170.802 50.8033 170.791C50.7209 170.779 50.6416 170.751 50.5702 170.709C50.4987 170.666 50.4366 170.609 50.3874 170.542C50.3382 170.475 50.303 170.398 50.2839 170.317C46.392 156.128 30.02 143.237 28.1652 142.872C28.0553 142.852 27.9427 142.852 27.8328 142.872C27.6184 143.183 27.9507 145.169 28.326 147.477C28.5511 148.861 28.8299 150.579 29.1301 152.661C30.3309 161.14 34.2122 174.203 34.2551 174.331C34.3017 174.489 34.2838 174.66 34.2055 174.804C34.1271 174.949 33.9946 175.057 33.8369 175.104C33.7773 175.119 33.7155 175.123 33.6546 175.115Z" fill="#263238"/>
<path d="M47.3244 193.673C47.1793 193.676 47.0382 193.626 46.9262 193.534C46.8142 193.441 46.7387 193.312 46.7133 193.169C45.5702 188.384 43.5291 183.86 40.6985 179.838C35.7236 172.582 32.7001 156.396 32.5822 155.709C32.5666 155.629 32.567 155.546 32.5834 155.466C32.5998 155.386 32.6318 155.31 32.6776 155.242C32.7234 155.174 32.7821 155.116 32.8504 155.071C32.9186 155.026 32.9951 154.995 33.0754 154.979C33.2383 154.954 33.4048 154.992 33.5405 155.086C33.6762 155.18 33.7707 155.322 33.8044 155.484C33.8044 155.645 36.8923 172.099 41.717 179.097C44.6645 183.255 46.7765 187.947 47.9356 192.911C47.951 192.992 47.95 193.074 47.9329 193.155C47.9157 193.235 47.8826 193.31 47.8356 193.378C47.7886 193.445 47.7287 193.502 47.6593 193.545C47.5899 193.588 47.5125 193.617 47.4317 193.63L47.3244 193.673Z" fill="#263238"/>
<path d="M54.6472 158.725C54.5655 158.722 54.4852 158.704 54.4108 158.67C54.3364 158.636 54.2694 158.588 54.2137 158.528C54.1579 158.468 54.1145 158.398 54.0858 158.321C54.0572 158.245 54.0439 158.163 54.0468 158.081C54.272 152.146 53.5429 148.228 51.4415 144.128L51.1949 143.666C47.0563 135.52 42.1994 125.731 41.4918 122.339C41.0307 120.192 40.3124 119.323 39.9693 119.312C39.8942 119.312 39.0043 119.387 37.9215 122.983C36.0773 129.058 40.4089 151.695 40.4625 151.963C40.4938 152.125 40.4594 152.294 40.3669 152.43C40.2744 152.567 40.1314 152.662 39.9693 152.693C39.8072 152.724 39.6393 152.69 39.5026 152.597C39.3659 152.505 39.2715 152.362 39.2402 152.199C39.0579 151.255 34.8015 129.026 36.7314 122.661C37.6534 119.591 38.7149 118.099 39.9478 118.099H39.9586C41.5668 118.164 42.3281 120.643 42.639 122.114C43.4109 125.774 49.8225 138.385 52.2885 143.13L52.5243 143.602C54.733 147.895 55.505 152.028 55.2691 158.189C55.2482 158.338 55.1736 158.475 55.0592 158.574C54.9448 158.673 54.7983 158.727 54.6472 158.725Z" fill="#263238"/>
<path d="M50.2086 168.664C50.0533 168.663 49.904 168.604 49.7893 168.499C49.6746 168.394 49.6025 168.25 49.5867 168.096C49.5867 168.02 48.9863 160.142 48.3966 155.119C47.807 150.096 41.9637 140.844 41.8779 140.758C41.7897 140.615 41.7617 140.444 41.7999 140.281C41.8381 140.118 41.9394 139.976 42.0816 139.888C42.2238 139.8 42.3951 139.772 42.558 139.81C42.7209 139.848 42.8619 139.95 42.95 140.092C43.1966 140.479 49.0399 149.752 49.6511 154.969C50.2622 160.185 50.8412 167.924 50.8519 167.999C50.8638 168.162 50.8108 168.324 50.7044 168.449C50.598 168.573 50.4468 168.651 50.2837 168.664H50.2086Z" fill="#263238"/>
</svg>
